#  ==========================================================================
#  
#  Wavefront OBJ format exported by Red-i Productions' "Riptide Pro"
#     (a commercial plugin for Cinema 4D PC & Mac, R9.6 or later)
#  
#  Red-i Productions
#  http://skinprops.com
#  
#  ==========================================================================
mtllib field.mtl
o Cube
v -14.8346 0.406211 14.8346
v -14.8346 1.99534 14.8346
v -11.1259 0.406211 14.8346
v -11.1259 1.99534 14.8346
v -7.41729 0.406211 14.8346
v -7.41729 1.99534 14.8346
v -3.70865 0.406211 14.8346
v -3.70865 1.99534 14.8346
v 0 0.406211 14.8346
v 0 1.99534 14.8346
v 3.70865 0.406211 14.8346
v 3.70865 1.99534 14.8346
v 7.41729 0.406211 14.8346
v 7.41729 1.99534 14.8346
v 11.1259 0.406211 14.8346
v 11.1259 1.99534 14.8346
v 14.8346 0.406211 14.8346
v 14.8346 1.99534 14.8346
v 14.8346 0.406211 11.1259
v 14.8346 1.99534 11.1259
v 14.8346 0.406211 7.41729
v 14.8346 1.99534 7.41729
v 14.8346 0.406211 3.70865
v 14.8346 1.99534 3.70865
v 14.8346 0.406211 -0
v 14.8346 1.99534 -0
v 14.8346 0.406211 -3.70865
v 14.8346 1.99534 -3.70865
v 14.8346 0.406211 -7.41729
v 14.8346 1.99534 -7.41729
v 14.8346 0.406211 -11.1259
v 14.8346 1.99534 -11.1259
v 14.8346 0.406211 -14.8346
v 14.8346 1.99534 -14.8346
v 11.1259 0.406211 -14.8346
v 11.1259 1.99534 -14.8346
v 7.41729 0.406211 -14.8346
v 7.41729 1.99534 -14.8346
v 3.70865 0.406211 -14.8346
v 3.70865 1.99534 -14.8346
v 0 0.406211 -14.8346
v 0 1.99534 -14.8346
v -3.70865 0.406211 -14.8346
v -3.70865 1.99534 -14.8346
v -7.41729 0.406211 -14.8346
v -7.41729 1.99534 -14.8346
v -11.1259 0.406211 -14.8346
v -11.1259 1.99534 -14.8346
v -14.8346 0.406211 -14.8346
v -14.8346 1.99534 -14.8346
v -14.8346 0.406211 -11.1259
v -14.8346 1.99534 -11.1259
v -14.8346 0.406211 -7.41729
v -14.8346 1.99534 -7.41729
v -14.8346 0.406211 -3.70865
v -14.8346 1.99534 -3.70865
v -14.8346 0.406211 -0
v -14.8346 1.99534 -0
v -14.8346 0.406211 3.70865
v -14.8346 1.99534 3.70865
v -14.8346 0.406211 7.41729
v -14.8346 1.99534 7.41729
v -14.8346 0.406211 11.1259
v -14.8346 1.99534 11.1259
v -11.1259 1.99534 11.1259
v -11.1259 1.99534 7.41729
v -11.1259 1.99534 3.70865
v -11.1259 1.99534 -0
v -11.1259 1.99534 -3.70865
v -11.1259 1.99534 -7.41729
v -11.1259 1.99534 -11.1259
v -7.41729 1.99534 11.1259
v -7.41729 1.99534 7.41729
v -7.41729 1.99534 3.70865
v -7.41729 1.99534 -0
v -7.41729 1.99534 -3.70865
v -7.41729 1.99534 -7.41729
v -7.41729 1.99534 -11.1259
v -3.70865 1.99534 11.1259
v -3.70865 1.99534 7.41729
v -3.70865 1.99534 3.70865
v -3.70865 1.99534 -0
v -3.70865 1.99534 -3.70865
v -3.70865 1.99534 -7.41729
v -3.70865 1.99534 -11.1259
v 0 1.99534 11.1259
v 0 1.99534 7.41729
v 0 1.99534 3.70865
v 0 1.99534 -0
v 0 1.99534 -3.70865
v 0 1.99534 -7.41729
v 0 1.99534 -11.1259
v 3.70865 1.99534 11.1259
v 3.70865 1.99534 7.41729
v 3.70865 1.99534 3.70865
v 3.70865 1.99534 -0
v 3.70865 1.99534 -3.70865
v 3.70865 1.99534 -7.41729
v 3.70865 1.99534 -11.1259
v 7.41729 1.99534 11.1259
v 7.41729 1.99534 7.41729
v 7.41729 1.99534 3.70865
v 7.41729 1.99534 -0
v 7.41729 1.99534 -3.70865
v 7.41729 1.99534 -7.41729
v 7.41729 1.99534 -11.1259
v 11.1259 1.99534 11.1259
v 11.1259 1.99534 7.41729
v 11.1259 1.99534 3.70865
v 11.1259 1.99534 -0
v 11.1259 1.99534 -3.70865
v 11.1259 1.99534 -7.41729
v 11.1259 1.99534 -11.1259
v -11.1259 0.406211 -11.1259
v -11.1259 0.406211 -7.41729
v -11.1259 0.406211 -3.70865
v -11.1259 0.406211 -0
v -11.1259 0.406211 3.70865
v -11.1259 0.406211 7.41729
v -11.1259 0.406211 11.1259
v -7.41729 0.406211 -11.1259
v -7.41729 0.406211 -7.41729
v -7.41729 0.406211 -3.70865
v -7.41729 0.406211 -0
v -7.41729 0.406211 3.70865
v -7.41729 0.406211 7.41729
v -7.41729 0.406211 11.1259
v -3.70865 0.406211 -11.1259
v -3.70865 0.406211 -7.41729
v -3.70865 0.406211 -3.70865
v -3.70865 0.406211 -0
v -3.70865 0.406211 3.70865
v -3.70865 0.406211 7.41729
v -3.70865 0.406211 11.1259
v 0 0.406211 -11.1259
v 0 0.406211 -7.41729
v 0 0.406211 -3.70865
v 0 0.406211 -0
v 0 0.406211 3.70865
v 0 0.406211 7.41729
v 0 0.406211 11.1259
v 3.70865 0.406211 -11.1259
v 3.70865 0.406211 -7.41729
v 3.70865 0.406211 -3.70865
v 3.70865 0.406211 -0
v 3.70865 0.406211 3.70865
v 3.70865 0.406211 7.41729
v 3.70865 0.406211 11.1259
v 7.41729 0.406211 -11.1259
v 7.41729 0.406211 -7.41729
v 7.41729 0.406211 -3.70865
v 7.41729 0.406211 -0
v 7.41729 0.406211 3.70865
v 7.41729 0.406211 7.41729
v 7.41729 0.406211 11.1259
v 11.1259 0.406211 -11.1259
v 11.1259 0.406211 -7.41729
v 11.1259 0.406211 -3.70865
v 11.1259 0.406211 -0
v 11.1259 0.406211 3.70865
v 11.1259 0.406211 7.41729
v 11.1259 0.406211 11.1259
v -14.8346 4.44031 14.8346
v -11.1259 4.44031 14.8346
v -7.41729 4.44031 14.8346
v -14.8346 4.44031 7.41729
v -14.8346 4.44031 11.1259
v -11.1259 4.44031 11.1259
v -11.1259 4.44031 7.41729
v -7.41729 4.44031 11.1259
v 7.41729 4.44031 14.8346
v 11.1259 4.44031 14.8346
v 14.8346 4.44031 14.8346
v 14.8346 4.44031 11.1259
v 14.8346 4.44031 7.41729
v 7.41729 4.44031 11.1259
v 11.1259 4.44031 11.1259
v 11.1259 4.44031 7.41729
v -7.41729 4.44031 -14.8346
v -11.1259 4.44031 -14.8346
v -14.8346 4.44031 -14.8346
v -14.8346 4.44031 -11.1259
v -14.8346 4.44031 -7.41729
v -11.1259 4.44031 -7.41729
v -11.1259 4.44031 -11.1259
v -7.41729 4.44031 -11.1259
v 14.8346 4.44031 -7.41729
v 14.8346 4.44031 -11.1259
v 14.8346 4.44031 -14.8346
v 11.1259 4.44031 -14.8346
v 7.41729 4.44031 -14.8346
v 7.41729 4.44031 -11.1259
v 11.1259 4.44031 -7.41729
v 11.1259 4.44031 -11.1259
# 194 vertices

vt 0.00000 0.00000
vt 0.00000 1.00000
vt 0.12500 1.00000
vt 0.12500 0.00000
vt 0.25000 1.00000
vt 0.25000 0.00000
vt 0.37500 1.00000
vt 0.37500 0.00000
vt 0.50000 1.00000
vt 0.50000 0.00000
vt 0.62500 1.00000
vt 0.62500 0.00000
vt 0.75000 1.00000
vt 0.75000 0.00000
vt 0.87500 1.00000
vt 0.87500 0.00000
vt 1.00000 1.00000
vt 1.00000 0.00000
vt 0.00000 0.12500
vt 0.12500 0.12500
vt 0.25000 0.12500
vt 0.37500 0.12500
vt 0.50000 0.12500
vt 0.62500 0.12500
vt 0.75000 0.12500
vt 0.87500 0.12500
vt 1.00000 0.12500
vt 0.00000 0.25000
vt 0.12500 0.25000
vt 0.25000 0.25000
vt 0.37500 0.25000
vt 0.50000 0.25000
vt 0.62500 0.25000
vt 0.75000 0.25000
vt 0.87500 0.25000
vt 1.00000 0.25000
vt 0.00000 0.37500
vt 0.12500 0.37500
vt 0.25000 0.37500
vt 0.37500 0.37500
vt 0.50000 0.37500
vt 0.62500 0.37500
vt 0.75000 0.37500
vt 0.87500 0.37500
vt 1.00000 0.37500
vt 0.00000 0.50000
vt 0.12500 0.50000
vt 0.25000 0.50000
vt 0.37500 0.50000
vt 0.50000 0.50000
vt 0.62500 0.50000
vt 0.75000 0.50000
vt 0.87500 0.50000
vt 1.00000 0.50000
vt 0.00000 0.62500
vt 0.12500 0.62500
vt 0.25000 0.62500
vt 0.37500 0.62500
vt 0.50000 0.62500
vt 0.62500 0.62500
vt 0.75000 0.62500
vt 0.87500 0.62500
vt 1.00000 0.62500
vt 0.00000 0.75000
vt 0.12500 0.75000
vt 0.25000 0.75000
vt 0.37500 0.75000
vt 0.50000 0.75000
vt 0.62500 0.75000
vt 0.75000 0.75000
vt 0.87500 0.75000
vt 1.00000 0.75000
vt 0.00000 0.87500
vt 0.12500 0.87500
vt 0.25000 0.87500
vt 0.37500 0.87500
vt 0.50000 0.87500
vt 0.62500 0.87500
vt 0.75000 0.87500
vt 0.87500 0.87500
vt 1.00000 0.87500
# 81 texture coordinates

vn 0 0 1
vn 1 0 -0
vn 0 0 -1
vn -1 0 -0
vn 0 1 -0
vn 0 -1 -0
# 6 vertex normals

usemtl Mat
f 3/4/1 4/3/1 2/2/1 1/1/1
f 5/6/1 6/5/1 4/3/1 3/4/1
f 7/8/1 8/7/1 6/5/1 5/6/1
f 9/10/1 10/9/1 8/7/1 7/8/1
f 11/12/1 12/11/1 10/9/1 9/10/1
f 13/14/1 14/13/1 12/11/1 11/12/1
f 15/16/1 16/15/1 14/13/1 13/14/1
f 17/18/1 18/17/1 16/15/1 15/16/1
f 19/4/2 20/3/2 18/2/2 17/1/2
f 21/6/2 22/5/2 20/3/2 19/4/2
f 23/8/2 24/7/2 22/5/2 21/6/2
f 25/10/2 26/9/2 24/7/2 23/8/2
f 27/12/2 28/11/2 26/9/2 25/10/2
f 29/14/2 30/13/2 28/11/2 27/12/2
f 31/16/2 32/15/2 30/13/2 29/14/2
f 33/18/2 34/17/2 32/15/2 31/16/2
f 35/4/3 36/3/3 34/2/3 33/1/3
f 37/6/3 38/5/3 36/3/3 35/4/3
f 39/8/3 40/7/3 38/5/3 37/6/3
f 41/10/3 42/9/3 40/7/3 39/8/3
f 43/12/3 44/11/3 42/9/3 41/10/3
f 45/14/3 46/13/3 44/11/3 43/12/3
f 47/16/3 48/15/3 46/13/3 45/14/3
f 49/18/3 50/17/3 48/15/3 47/16/3
f 51/4/4 52/3/4 50/2/4 49/1/4
f 53/6/4 54/5/4 52/3/4 51/4/4
f 55/8/4 56/7/4 54/5/4 53/6/4
f 57/10/4 58/9/4 56/7/4 55/8/4
f 59/12/4 60/11/4 58/9/4 57/10/4
f 61/14/4 62/13/4 60/11/4 59/12/4
f 63/16/4 64/15/4 62/13/4 61/14/4
f 1/18/4 2/17/4 64/15/4 63/16/4
usemtl Mat.2
f 164/4/5 168/20/5 167/19/5 163/1/5
f 165/6/5 170/21/5 168/20/5 164/4/5
usemtl Mat.1
f 8/8/5 79/22/5 72/21/5 6/6/5
f 10/10/5 86/23/5 79/22/5 8/8/5
f 12/12/5 93/24/5 86/23/5 10/10/5
f 14/14/5 100/25/5 93/24/5 12/12/5
usemtl Mat.2
f 172/16/5 177/26/5 176/25/5 171/14/5
f 173/18/5 174/27/5 177/26/5 172/16/5
f 168/20/5 169/29/5 166/28/5 167/19/5
usemtl Mat.1
f 72/21/5 73/30/5 66/29/5 65/20/5
f 79/22/5 80/31/5 73/30/5 72/21/5
f 86/23/5 87/32/5 80/31/5 79/22/5
f 93/24/5 94/33/5 87/32/5 86/23/5
f 100/25/5 101/34/5 94/33/5 93/24/5
f 107/26/5 108/35/5 101/34/5 100/25/5
usemtl Mat.2
f 174/27/5 175/36/5 178/35/5 177/26/5
usemtl Mat.1
f 66/29/5 67/38/5 60/37/5 62/28/5
f 73/30/5 74/39/5 67/38/5 66/29/5
f 80/31/5 81/40/5 74/39/5 73/30/5
f 87/32/5 88/41/5 81/40/5 80/31/5
f 94/33/5 95/42/5 88/41/5 87/32/5
f 101/34/5 102/43/5 95/42/5 94/33/5
f 108/35/5 109/44/5 102/43/5 101/34/5
f 22/36/5 24/45/5 109/44/5 108/35/5
f 67/38/5 68/47/5 58/46/5 60/37/5
f 74/39/5 75/48/5 68/47/5 67/38/5
f 81/40/5 82/49/5 75/48/5 74/39/5
f 88/41/5 89/50/5 82/49/5 81/40/5
f 95/42/5 96/51/5 89/50/5 88/41/5
f 102/43/5 103/52/5 96/51/5 95/42/5
f 109/44/5 110/53/5 103/52/5 102/43/5
f 24/45/5 26/54/5 110/53/5 109/44/5
f 68/47/5 69/56/5 56/55/5 58/46/5
f 75/48/5 76/57/5 69/56/5 68/47/5
f 82/49/5 83/58/5 76/57/5 75/48/5
f 89/50/5 90/59/5 83/58/5 82/49/5
f 96/51/5 97/60/5 90/59/5 89/50/5
f 103/52/5 104/61/5 97/60/5 96/51/5
f 110/53/5 111/62/5 104/61/5 103/52/5
f 26/54/5 28/63/5 111/62/5 110/53/5
f 69/56/5 70/65/5 54/64/5 56/55/5
f 76/57/5 77/66/5 70/65/5 69/56/5
f 83/58/5 84/67/5 77/66/5 76/57/5
f 90/59/5 91/68/5 84/67/5 83/58/5
f 97/60/5 98/69/5 91/68/5 90/59/5
f 104/61/5 105/70/5 98/69/5 97/60/5
f 111/62/5 112/71/5 105/70/5 104/61/5
f 28/63/5 30/72/5 112/71/5 111/62/5
usemtl Mat.2
f 184/65/5 185/74/5 182/73/5 183/64/5
usemtl Mat.1
f 77/66/5 78/75/5 71/74/5 70/65/5
f 84/67/5 85/76/5 78/75/5 77/66/5
f 91/68/5 92/77/5 85/76/5 84/67/5
f 98/69/5 99/78/5 92/77/5 91/68/5
f 105/70/5 106/79/5 99/78/5 98/69/5
f 112/71/5 113/80/5 106/79/5 105/70/5
usemtl Mat.2
f 187/72/5 188/81/5 194/80/5 193/71/5
f 185/74/5 180/3/5 181/2/5 182/73/5
f 186/75/5 179/5/5 180/3/5 185/74/5
usemtl Mat.1
f 85/76/5 44/7/5 46/5/5 78/75/5
f 92/77/5 42/9/5 44/7/5 85/76/5
f 99/78/5 40/11/5 42/9/5 92/77/5
f 106/79/5 38/13/5 40/11/5 99/78/5
usemtl Mat.2
f 194/80/5 190/15/5 191/13/5 192/79/5
f 188/81/5 189/17/5 190/15/5 194/80/5
usemtl Mat.1
f 47/4/6 114/20/6 51/19/6 49/1/6
f 45/6/6 121/21/6 114/20/6 47/4/6
f 43/8/6 128/22/6 121/21/6 45/6/6
f 41/10/6 135/23/6 128/22/6 43/8/6
f 39/12/6 142/24/6 135/23/6 41/10/6
f 37/14/6 149/25/6 142/24/6 39/12/6
f 35/16/6 156/26/6 149/25/6 37/14/6
f 33/18/6 31/27/6 156/26/6 35/16/6
f 114/20/6 115/29/6 53/28/6 51/19/6
f 121/21/6 122/30/6 115/29/6 114/20/6
f 128/22/6 129/31/6 122/30/6 121/21/6
f 135/23/6 136/32/6 129/31/6 128/22/6
f 142/24/6 143/33/6 136/32/6 135/23/6
f 149/25/6 150/34/6 143/33/6 142/24/6
f 156/26/6 157/35/6 150/34/6 149/25/6
f 31/27/6 29/36/6 157/35/6 156/26/6
f 115/29/6 116/38/6 55/37/6 53/28/6
f 122/30/6 123/39/6 116/38/6 115/29/6
f 129/31/6 130/40/6 123/39/6 122/30/6
f 136/32/6 137/41/6 130/40/6 129/31/6
f 143/33/6 144/42/6 137/41/6 136/32/6
f 150/34/6 151/43/6 144/42/6 143/33/6
f 157/35/6 158/44/6 151/43/6 150/34/6
f 29/36/6 27/45/6 158/44/6 157/35/6
f 116/38/6 117/47/6 57/46/6 55/37/6
f 123/39/6 124/48/6 117/47/6 116/38/6
f 130/40/6 131/49/6 124/48/6 123/39/6
f 137/41/6 138/50/6 131/49/6 130/40/6
f 144/42/6 145/51/6 138/50/6 137/41/6
f 151/43/6 152/52/6 145/51/6 144/42/6
f 158/44/6 159/53/6 152/52/6 151/43/6
f 27/45/6 25/54/6 159/53/6 158/44/6
f 117/47/6 118/56/6 59/55/6 57/46/6
f 124/48/6 125/57/6 118/56/6 117/47/6
f 131/49/6 132/58/6 125/57/6 124/48/6
f 138/50/6 139/59/6 132/58/6 131/49/6
f 145/51/6 146/60/6 139/59/6 138/50/6
f 152/52/6 153/61/6 146/60/6 145/51/6
f 159/53/6 160/62/6 153/61/6 152/52/6
f 25/54/6 23/63/6 160/62/6 159/53/6
f 118/56/6 119/65/6 61/64/6 59/55/6
f 125/57/6 126/66/6 119/65/6 118/56/6
f 132/58/6 133/67/6 126/66/6 125/57/6
f 139/59/6 140/68/6 133/67/6 132/58/6
f 146/60/6 147/69/6 140/68/6 139/59/6
f 153/61/6 154/70/6 147/69/6 146/60/6
f 160/62/6 161/71/6 154/70/6 153/61/6
f 23/63/6 21/72/6 161/71/6 160/62/6
f 119/65/6 120/74/6 63/73/6 61/64/6
f 126/66/6 127/75/6 120/74/6 119/65/6
f 133/67/6 134/76/6 127/75/6 126/66/6
f 140/68/6 141/77/6 134/76/6 133/67/6
f 147/69/6 148/78/6 141/77/6 140/68/6
f 154/70/6 155/79/6 148/78/6 147/69/6
f 161/71/6 162/80/6 155/79/6 154/70/6
f 21/72/6 19/81/6 162/80/6 161/71/6
f 120/74/6 3/3/6 1/2/6 63/73/6
f 127/75/6 5/5/6 3/3/6 120/74/6
f 134/76/6 7/7/6 5/5/6 127/75/6
f 141/77/6 9/9/6 7/7/6 134/76/6
f 148/78/6 11/11/6 9/9/6 141/77/6
f 155/79/6 13/13/6 11/11/6 148/78/6
f 162/80/6 15/15/6 13/13/6 155/79/6
f 19/81/6 17/17/6 15/15/6 162/80/6
usemtl Mat.2
f 4/4/1 164/4/1 163/1/1 2/1/1
f 2/1/4 163/1/4 167/19/4 64/19/4
f 6/6/1 165/6/1 164/4/1 4/4/1
f 72/21/2 170/21/2 165/6/2 6/6/2
f 65/20/3 168/20/3 170/21/3 72/21/3
f 66/29/2 169/29/2 168/20/2 65/20/2
f 62/28/3 166/28/3 169/29/3 66/29/3
f 64/19/4 167/19/4 166/28/4 62/28/4
f 16/16/1 172/16/1 171/14/1 14/14/1
f 100/25/3 176/25/3 177/26/3 107/26/3
f 14/14/4 171/14/4 176/25/4 100/25/4
f 18/18/1 173/18/1 172/16/1 16/16/1
f 20/27/2 174/27/2 173/18/2 18/18/2
f 22/36/2 175/36/2 174/27/2 20/27/2
f 108/35/3 178/35/3 175/36/3 22/36/3
f 107/26/4 177/26/4 178/35/4 108/35/4
f 70/65/1 184/65/1 183/64/1 54/64/1
f 71/74/2 185/74/2 184/65/2 70/65/2
f 54/64/4 183/64/4 182/73/4 52/73/4
f 50/2/3 181/2/3 180/3/3 48/3/3
f 52/73/4 182/73/4 181/2/4 50/2/4
f 78/75/1 186/75/1 185/74/1 71/74/1
f 46/5/2 179/5/2 186/75/2 78/75/2
f 48/3/3 180/3/3 179/5/3 46/5/3
f 30/72/1 187/72/1 193/71/1 112/71/1
f 32/81/2 188/81/2 187/72/2 30/72/2
f 112/71/4 193/71/4 194/80/4 113/80/4
f 113/80/1 194/80/1 192/79/1 106/79/1
f 38/13/3 191/13/3 190/15/3 36/15/3
f 106/79/4 192/79/4 191/13/4 38/13/4
f 34/17/2 189/17/2 188/81/2 32/81/2
f 36/15/3 190/15/3 189/17/3 34/17/3
# 192 facets

